<svg width="67" height="67" viewBox="0 0 67 67" fill="none" xmlns="http://www.w3.org/2000/svg">
<circle cx="33.5" cy="33.5" r="33.5" fill="#3DDABE"/>
<g clip-path="url(#clip0_26_5014)">
<path d="M25.8231 38.3165C26.7456 39.0979 27.3573 40.1565 27.5783 41.3122H32.9452V33.7955C31.1276 33.326 29.781 31.6724 29.781 29.7101H31.8905C31.8905 30.8732 32.8368 31.8195 33.9999 31.8195C35.1631 31.8195 36.1094 30.8732 36.1094 29.7101H38.2189C38.2189 31.6723 36.8723 33.326 35.0547 33.7955V41.3121H40.4228C40.6462 40.1568 41.2637 39.0928 42.1949 38.301C45.0304 35.8899 46.6567 32.3742 46.6567 28.6554C46.6567 17.3099 32.82 11.738 24.9403 19.8331C19.7977 25.1165 20.2373 33.5847 25.8231 38.3165V38.3165Z" fill="white"/>
<path d="M33.9999 52.0001C36.3262 52.0001 38.2188 50.1075 38.2188 47.7811H29.781C29.781 50.1075 31.6736 52.0001 33.9999 52.0001Z" fill="white"/>
<path d="M27.6716 43.4215H40.3284V45.6716H27.6716V43.4215Z" fill="white"/>
</g>
<defs>
<clipPath id="clip0_26_5014">
<rect width="36" height="36" fill="white" transform="translate(16 16)"/>
</clipPath>
</defs>
</svg>
