<svg width="67" height="67" viewBox="0 0 67 67" fill="none" xmlns="http://www.w3.org/2000/svg">
<circle cx="33.5" cy="33.5" r="33.5" fill="#3DDABE"/>
<g clip-path="url(#clip0_27_5015)">
<path d="M36.1797 16C35.5967 16 35.125 16.4717 35.125 17.0547V31.8906C35.125 32.4736 35.5967 32.9453 36.1797 32.9453H50.9453C51.5283 32.9453 52 32.4736 52 31.8906C52 23.1668 44.9035 16 36.1797 16Z" fill="white"/>
<path d="M38.1335 49.6352L33.0156 35.9178V21.3438C33.0156 20.7608 32.5439 20.2891 31.9609 20.2891C23.2371 20.2891 16 27.3856 16 36.1094C16 44.8332 23.2371 52 31.9609 52C33.8705 52 35.7399 51.6612 37.5166 50.9937C38.0615 50.7887 38.3375 50.181 38.1335 49.6352Z" fill="white"/>
<path d="M50.9453 35.0547H36.1797C35.8336 35.0547 35.5102 35.2246 35.3124 35.5089C35.1157 35.7932 35.0704 36.1557 35.1919 36.4801L40.3767 50.3768C40.4756 50.6384 40.6734 50.8505 40.9288 50.9659C41.1844 51.0821 41.4724 51.092 41.7363 50.9927C47.875 48.6824 52 42.66 52 36.1094C52 35.5264 51.5282 35.0547 50.9453 35.0547Z" fill="white"/>
</g>
<defs>
<clipPath id="clip0_27_5015">
<rect width="36" height="36" fill="white" transform="translate(16 16)"/>
</clipPath>
</defs>
</svg>
