<svg width="67" height="67" viewBox="0 0 67 67" fill="none" xmlns="http://www.w3.org/2000/svg">
<circle cx="33.5" cy="33.5" r="33.5" fill="#3DDABE"/>
<g clip-path="url(#clip0_27_5016)">
<path d="M25.4886 30.4607L28.2823 33.2543L33.2542 28.2824L30.4605 25.4888C31.2306 22.9061 30.5369 20.0962 28.6031 18.1624C26.6117 16.171 23.7106 15.4919 21.032 16.3901C20.7077 16.4988 20.4562 16.7582 20.3575 17.0857C20.2588 17.4133 20.3251 17.7684 20.5353 18.0383L23.4695 21.8044L21.8042 23.4698L18.038 20.5355C17.7682 20.3252 17.413 20.2589 17.0856 20.3577C16.758 20.4564 16.4987 20.7077 16.3899 21.0322C15.4916 23.7108 16.1707 26.6118 18.1622 28.6033C20.096 30.5371 22.9059 31.2309 25.4886 30.4607Z" fill="white"/>
<path d="M42.5114 37.5395L39.7177 34.7458L34.7458 39.7176L37.5395 42.5113C36.7694 45.094 37.4631 47.9039 39.3969 49.8377C40.8071 51.248 42.6732 52.0001 44.5937 52C45.3853 52 46.1862 51.8722 46.968 51.61C47.2923 51.5012 47.5438 51.2419 47.6425 50.9143C47.7412 50.5868 47.6749 50.2317 47.4647 49.9618L44.5305 46.1957L46.1958 44.5304L49.962 47.4645C50.2318 47.6747 50.5868 47.7409 50.9144 47.6424C51.242 47.5436 51.5013 47.2923 51.6101 46.9678C52.5084 44.2892 51.8293 41.3882 49.8378 39.3967C47.9039 37.463 45.0941 36.7694 42.5114 37.5395Z" fill="white"/>
<path d="M25.7288 38.7909C25.3169 38.379 24.6492 38.379 24.2373 38.7909L17.0281 46.0001C15.6573 47.3708 15.6573 49.6012 17.0281 50.9719C18.3988 52.3427 20.6292 52.3427 21.9999 50.9719L29.2091 43.7627C29.621 43.3508 29.621 42.6831 29.2091 42.2712L25.7288 38.7909Z" fill="white"/>
<path d="M43.8226 33.1268C44.2874 33.5915 44.9054 33.8476 45.5628 33.8476C46.2201 33.8476 46.8381 33.5915 47.3029 33.1268L51.2804 29.1492C52.2399 28.1898 52.2399 26.6285 51.2804 25.669L42.3311 16.7196C41.3716 15.7601 39.8104 15.7601 38.8507 16.7196L34.8733 20.6971C33.9138 21.6566 33.9138 23.2179 34.8733 24.1774L43.8226 33.1268Z" fill="white"/>
<path d="M36.1163 28.4034L27.2203 37.2993L27.2205 37.2995L30.7006 40.7796L39.5965 31.8837L36.1163 28.4034Z" fill="white"/>
</g>
<defs>
<clipPath id="clip0_27_5016">
<rect width="36" height="36" fill="white" transform="translate(16 16)"/>
</clipPath>
</defs>
</svg>
