<svg width="67" height="67" viewBox="0 0 67 67" fill="none" xmlns="http://www.w3.org/2000/svg">
<circle cx="33.5" cy="33.5" r="33.5" fill="#3DDABE"/>
<path d="M46.8537 16C46.3014 16 45.8537 16.4477 45.8537 17V17.1951C45.8537 17.7474 45.4059 18.1951 44.8537 18.1951H23.1464C22.5941 18.1951 22.1464 17.7474 22.1464 17.1951V17C22.1464 16.4477 21.6987 16 21.1464 16H20.5122C19.9599 16 19.5122 16.4477 19.5122 17V51C19.5122 51.5523 19.9599 52 20.5122 52H21.1463C21.6986 52 22.1463 51.5523 22.1463 51V50.8049C22.1463 50.2526 22.594 49.8049 23.1463 49.8049H44.8537C45.4059 49.8049 45.8537 50.2526 45.8537 50.8049V51C45.8537 51.5523 46.3014 52 46.8537 52H47.4878C48.0401 52 48.4878 51.5523 48.4878 51V17C48.4878 16.4477 48.0401 16 47.4878 16H46.8537ZM45.8537 41.0244H23.1464C22.5941 41.0244 22.1464 40.5766 22.1464 40.0244V39.3902C22.1464 38.838 22.5941 38.3902 23.1464 38.3902H44.8537C45.406 38.3902 45.8537 38.838 45.8537 39.3902V41.0243C45.8537 41.0243 45.8537 41.0244 45.8537 41.0244ZM45.8537 29.6098H23.1464C22.5941 29.6098 22.1464 29.162 22.1464 28.6098V27.9756C22.1464 27.4234 22.5941 26.9756 23.1464 26.9756H44.8537C45.406 26.9756 45.8537 27.4234 45.8537 27.9756V29.6097C45.8537 29.6097 45.8537 29.6098 45.8537 29.6098Z" fill="white"/>
</svg>
