<svg width="67" height="67" viewBox="0 0 67 67" fill="none" xmlns="http://www.w3.org/2000/svg">
<circle cx="33.5" cy="33.5" r="33.5" fill="#3DDABE"/>
<g clip-path="url(#clip0_27_5018)">
<path d="M34 35.3034C34.7199 35.3034 35.3034 34.7199 35.3034 34C35.3034 33.2802 34.7199 32.6967 34 32.6967C33.2802 32.6967 32.6967 33.2802 32.6967 34C32.6967 34.7199 33.2802 35.3034 34 35.3034Z" fill="white"/>
<path d="M51.6311 29.2757L51.2622 27.8988L48.7819 28.5634C48.8294 28.3694 48.871 28.1757 48.9066 27.983C49.4053 25.2825 48.7137 22.9001 46.9068 21.0931L45.8989 20.0852L44.0832 21.9009C44.0273 21.709 43.9665 21.5205 43.901 21.3358C42.9826 18.7478 41.1925 17.0303 38.7243 16.3689L37.3474 16L36.6828 18.4803C36.5385 18.342 36.3915 18.2092 36.2424 18.082C34.153 16.3 31.744 15.7076 29.2757 16.3689L27.8988 16.7378L28.5629 19.2164C27.3484 18.9194 25.8646 18.7842 24.3441 19.1916C23.121 19.5193 22.0271 20.1591 21.093 21.0932L20.0853 22.1011L21.9009 23.9167C19.8222 24.5212 17.2622 25.9422 16.3689 29.2757L16 30.6526L18.4803 31.3172C18.3421 31.4615 18.2092 31.6084 18.082 31.7576C16.3 33.847 15.7076 36.256 16.3689 38.7243L16.7378 40.1012L19.2181 39.4366C19.1706 39.6306 19.129 39.8243 19.0934 40.0171C18.5948 42.7175 19.2863 45.1 21.0932 46.907L22.1011 47.9149L23.9168 46.0992C23.9727 46.2911 24.0335 46.4796 24.099 46.6643C25.0174 49.2523 26.8075 50.9698 29.2757 51.6312L30.6526 52.0001L31.3172 49.5198C31.4615 49.6581 31.6085 49.791 31.7576 49.9181C33.847 51.7001 36.256 52.2925 38.7243 51.6312L40.1012 51.2622L39.4371 48.7838C40.6516 49.0807 42.1353 49.2159 43.6558 48.8085C44.879 48.4807 45.9728 47.8409 46.9069 46.9069L47.9148 45.899L46.0993 44.0834C48.1778 43.4786 50.738 42.0576 51.6312 38.7244L52.0001 37.3475L49.5198 36.6829C49.6581 36.5386 49.7909 36.3917 49.9181 36.2426C51.7001 34.153 52.2925 31.744 51.6311 29.2757ZM36.275 42.4905C31.5933 43.745 26.764 40.9567 25.5095 36.2751C24.255 31.5935 27.0433 26.764 31.7249 25.5096C36.4066 24.2551 41.236 27.0434 42.4904 31.725C43.7449 36.4066 40.9567 41.2361 36.275 42.4905Z" fill="white"/>
<path d="M32.2786 27.5756C28.7362 28.5248 26.6265 32.179 27.5756 35.7214C28.5248 39.2638 32.179 41.3735 35.7214 40.4244C39.2638 39.4752 41.3735 35.821 40.4244 32.2786C39.4752 28.7362 35.821 26.6265 32.2786 27.5756ZM34.891 37.3251C33.0575 37.8164 31.1661 36.7245 30.6749 34.891C30.1836 33.0575 31.2755 31.1661 33.109 30.6749C34.9425 30.1836 36.8339 31.2755 37.3251 33.109C37.8165 34.9425 36.7245 36.8339 34.891 37.3251Z" fill="white"/>
</g>
<defs>
<clipPath id="clip0_27_5018">
<rect width="36" height="36" fill="white" transform="translate(16 16)"/>
</clipPath>
</defs>
</svg>
