<svg width="67" height="67" viewBox="0 0 67 67" fill="none" xmlns="http://www.w3.org/2000/svg">
<circle cx="33.5" cy="33.5" r="33.5" fill="#3DDABE"/>
<g clip-path="url(#clip0_28_5019)">
<path d="M36.9628 25.6093C32.5989 24.6944 29.1879 21.2835 28.2732 16.9195C28.1609 16.3838 27.6884 16 27.1409 16C26.5933 16 26.1208 16.3838 26.0086 16.9195C25.0938 21.2835 21.6829 24.6944 17.3189 25.609C16.7831 25.7213 16.3993 26.1939 16.3993 26.7414C16.3993 27.2888 16.7831 27.7614 17.3189 27.8737C21.6828 28.7885 25.0936 32.1994 26.0083 36.5633C26.1206 37.0991 26.5931 37.4829 27.1407 37.4829C27.6881 37.4829 28.1607 37.0992 28.273 36.5633C29.1878 32.1994 32.5988 28.7885 36.9627 27.8739C37.4985 27.7616 37.8824 27.2891 37.8824 26.7416C37.8823 26.1941 37.4985 25.7215 36.9628 25.6093Z" fill="white"/>
<path d="M35.0502 44.7215C32.9942 44.2906 31.3871 42.6835 30.956 40.6273C30.8437 40.0915 30.3712 39.7076 29.8237 39.7076C29.2763 39.7076 28.8037 40.0913 28.6914 40.6272C28.2603 42.6833 26.6532 44.2904 24.5971 44.7214C24.0613 44.8337 23.6775 45.3063 23.6775 45.8537C23.6775 46.4012 24.0613 46.8738 24.5971 46.9861C26.6531 47.4171 28.2602 49.0242 28.6913 51.0804C28.8035 51.6161 29.276 52 29.8236 52C30.371 52 30.8436 51.6163 30.9559 51.0804C31.387 49.0242 32.9941 47.4171 35.0502 46.9861C35.586 46.8738 35.9699 46.4013 35.9699 45.8538C35.9699 45.3064 35.5861 44.8339 35.0502 44.7215Z" fill="white"/>
<path d="M50.6813 34.0096C47.9021 33.427 45.7299 31.2548 45.1474 28.4756C45.0351 27.9399 44.5626 27.556 44.0151 27.556C43.4676 27.556 42.9951 27.9397 42.8828 28.4756C42.3002 31.2548 40.128 33.4269 37.3488 34.0095C36.813 34.1217 36.4292 34.5943 36.4292 35.1418C36.4292 35.6892 36.813 36.1617 37.3488 36.2741C40.1279 36.8567 42.3001 39.0289 42.8826 41.808C42.9949 42.3438 43.4674 42.7277 44.0149 42.7277C44.5624 42.7277 45.035 42.344 45.1472 41.808C45.7299 39.0289 47.9021 36.8567 50.6812 36.2742C51.217 36.1619 51.6008 35.6894 51.6008 35.1419C51.6008 34.5945 51.217 34.1219 50.6813 34.0096Z" fill="white"/>
</g>
<defs>
<clipPath id="clip0_28_5019">
<rect width="36" height="36" fill="white" transform="translate(16 16)"/>
</clipPath>
</defs>
</svg>
