<svg width="67" height="67" viewBox="0 0 67 67" fill="none" xmlns="http://www.w3.org/2000/svg">
<circle cx="33.5" cy="33.5" r="33.5" fill="#3DDABE"/>
<path d="M48.0237 40.6526H39.9345C39.9151 40.733 39.9037 41.5196 39.9037 41.606C39.9037 42.1944 40.3808 42.6715 40.9692 42.6715H42.9136V45.4702H42.0919C41.5034 45.4702 41.0264 45.9473 41.0264 46.5357C41.0264 47.1242 41.5034 47.6012 42.0919 47.6012H42.9136V47.9195C42.9136 48.508 43.3906 48.985 43.9791 48.985C44.5675 48.985 45.0446 48.508 45.0446 47.9195V47.6012H45.8663C46.4547 47.6012 46.9318 47.1242 46.9318 46.5357C46.9318 45.9473 46.4547 45.4702 45.8663 45.4702H45.0446V42.6715H46.9889C47.5774 42.6715 48.0545 42.1944 48.0545 41.606C48.0545 41.5195 48.0431 40.733 48.0237 40.6526Z" fill="white"/>
<path d="M43.9791 19.015C40.5842 19.015 37.8223 21.777 37.8223 25.1719C37.8223 27.4805 39.0998 29.4961 40.9849 30.5498H46.9734C48.8584 29.4961 50.136 27.4805 50.136 25.1719C50.136 21.777 47.374 19.015 43.9791 19.015Z" fill="white"/>
<path d="M50.9345 32.6808H37.0236C36.4352 32.6808 35.9581 33.1579 35.9581 33.7463V37.4669C35.9581 38.0494 36.4303 38.5216 37.0128 38.5216H50.9453C51.5278 38.5216 52 38.0494 52 37.4669V33.7463C52 33.1579 51.5229 32.6808 50.9345 32.6808Z" fill="white"/>
<path d="M28.0656 40.6526H19.9764C19.9569 40.733 19.9456 41.5196 19.9456 41.606C19.9456 42.1944 20.4226 42.6715 21.0111 42.6715H22.9554V45.4702H22.1338C21.5453 45.4702 21.0682 45.9473 21.0682 46.5357C21.0682 47.1242 21.5453 47.6012 22.1338 47.6012H22.9554V47.9195C22.9554 48.508 23.4325 48.985 24.0209 48.985C24.6094 48.985 25.0865 48.508 25.0865 47.9195V47.6012H25.9081C26.4966 47.6012 26.9736 47.1242 26.9736 46.5357C26.9736 45.9473 26.4966 45.4702 25.9081 45.4702H25.0865V42.6715H27.0309C27.6193 42.6715 28.0964 42.1944 28.0964 41.606C28.0964 41.5195 28.085 40.733 28.0656 40.6526Z" fill="white"/>
<path d="M24.0209 19.015C20.626 19.015 17.864 21.777 17.864 25.1719C17.864 27.4805 19.1415 29.4961 21.0266 30.5498H27.0152C28.9002 29.4961 30.1777 27.4805 30.1777 25.1719C30.1777 21.777 27.4158 19.015 24.0209 19.015Z" fill="white"/>
<path d="M30.9763 32.6808H17.0655C16.4771 32.6808 16 33.1579 16 33.7463V37.4669C16 38.0494 16.4722 38.5216 17.0547 38.5216H30.9872C31.5696 38.5216 32.0419 38.0494 32.0419 37.4669V33.7463C32.0419 33.1579 31.5648 32.6808 30.9763 32.6808Z" fill="white"/>
</svg>
