<svg width="67" height="67" viewBox="0 0 67 67" fill="none" xmlns="http://www.w3.org/2000/svg">
<circle cx="33.5" cy="33.5" r="33.5" fill="#3DDABE"/>
<path d="M28 29.5C27.1716 29.5 26.5 30.1716 26.5 31V37C26.5 37.8284 27.1716 38.4999 28 38.4999H40C40.8284 38.4999 41.5 37.8284 41.5 37V31C41.5 30.1716 40.8284 29.5 40 29.5H28Z" fill="white"/>
<path d="M37.0001 26.4999H49.0001C49.8285 26.4999 50.5001 25.8284 50.5001 25V19C50.5001 18.1716 49.8285 17.5 49.0001 17.5H37.0001C36.1717 17.5 35.5001 18.1716 35.5001 19V25C35.5001 25.8284 36.1717 26.4999 37.0001 26.4999Z" fill="white"/>
<path d="M19 26.4999H31C31.8284 26.4999 32.5 25.8284 32.5 25V19C32.5 18.1716 31.8284 17.5 31 17.5H19C18.1716 17.5 17.5 18.1716 17.5 19V25C17.4999 25.8284 18.1716 26.4999 19 26.4999Z" fill="white"/>
<path d="M49 41.5H37.0001C36.1717 41.5 35.5001 42.1716 35.5001 43V49C35.5001 49.8284 36.1717 50.4999 37.0001 50.4999H49.0001C49.8285 50.4999 50.5001 49.8284 50.5001 49V43C50.5001 42.1716 49.8285 41.5 49 41.5Z" fill="white"/>
<path d="M30.9999 41.5H19C18.1716 41.5 17.5 42.1716 17.5 43V49C17.5 49.8284 18.1716 50.4999 19 50.4999H31C31.8284 50.4999 32.5 49.8284 32.5 49V43C32.5 42.1716 31.8284 41.5 30.9999 41.5Z" fill="white"/>
<path d="M46.0001 29.5C45.1717 29.5 44.5001 30.1716 44.5001 31V37C44.5001 37.8284 45.1717 38.4999 46.0001 38.4999H52.0001V29.5H46.0001Z" fill="white"/>
<path d="M23.5 37V31C23.5 30.1716 22.8285 29.5 22 29.5H16V38.5H22C22.8284 38.4999 23.5 37.8284 23.5 37Z" fill="white"/>
</svg>
