<svg width="67" height="67" viewBox="0 0 67 67" fill="none" xmlns="http://www.w3.org/2000/svg">
<circle cx="33.5" cy="33.5" r="33.5" fill="#3DDABE"/>
<g clip-path="url(#clip0_26_5010)">
<path d="M34 16C24.06 16 16 24.06 16 34C16 43.94 24.06 52 34 52C35.66 52 37 50.66 37 49C37 48.22 36.71 47.52 36.22 46.99C35.75 46.46 35.47 45.77 35.47 45C35.47 43.3399 36.81 42 38.47 42H42C47.52 42 52 37.5199 52 31.9999C52 23.16 43.94 16 34 16ZM23 34C21.34 34 20 32.66 20 31C20 29.34 21.34 28 23 28C24.6601 28 26 29.34 26 31C26 32.66 24.66 34 23 34ZM29 26C27.34 26 26 24.6601 26 23C26 21.34 27.34 20 29 20C30.6601 20 32 21.34 32 23C32 24.6601 30.66 26 29 26ZM39 26C37.3399 26 36 24.6601 36 23C36 21.34 37.3399 20 39 20C40.66 20 42 21.34 42 23C42 24.6601 40.66 26 39 26ZM45 34C43.3399 34 42 32.66 42 31C42 29.34 43.3399 28 45 28C46.66 28 48 29.34 48 31C48 32.66 46.66 34 45 34Z" fill="white"/>
</g>
<defs>
<clipPath id="clip0_26_5010">
<rect width="36" height="36" fill="white" transform="translate(16 16)"/>
</clipPath>
</defs>
</svg>
