<svg width="67" height="67" viewBox="0 0 67 67" fill="none" xmlns="http://www.w3.org/2000/svg">
<circle cx="33.5" cy="33.5" r="33.5" fill="#3DDABE"/>
<path d="M45.0829 29.8803C45.0175 29.7648 44.9226 29.6688 44.808 29.602C44.6934 29.5352 44.5631 29.5 44.4304 29.5H34.6054L36.2526 16.9145C36.2702 16.746 36.2307 16.5765 36.1404 16.4333C36.05 16.29 35.9141 16.1814 35.7544 16.1248C35.5948 16.0682 35.4208 16.067 35.2604 16.1213C35.1 16.1756 34.9625 16.2824 34.8701 16.4243L22.9219 37.3572C22.852 37.4708 22.8137 37.6011 22.811 37.7344C22.8082 37.8678 22.841 37.9995 22.9061 38.116C22.9712 38.2324 23.0662 38.3294 23.1813 38.3969C23.2963 38.4644 23.4273 38.5 23.5607 38.5H33.2389L31.9335 51.1045C31.9207 51.2724 31.9644 51.4397 32.0576 51.5799C32.1508 51.72 32.2883 51.825 32.448 51.8781C32.6078 51.9311 32.7807 51.9292 32.9393 51.8727C33.0978 51.8161 33.2329 51.7081 33.3231 51.5659L45.0739 30.6353C45.142 30.5215 45.1788 30.3917 45.1803 30.259C45.1819 30.1264 45.1483 29.9957 45.0829 29.8803Z" fill="white"/>
</svg>
