<svg width="67" height="67" viewBox="0 0 67 67" fill="none" xmlns="http://www.w3.org/2000/svg">
<circle cx="33.5" cy="33.5" r="33.5" fill="#3DDABE"/>
<path d="M30.694 46.4897C30.648 46.3673 30.6321 46.2632 30.6477 46.179C30.6632 46.0954 30.6098 46.0261 30.4871 45.9727C30.3645 45.9193 30.3033 45.8769 30.3033 45.8467C30.3033 45.8161 30.2154 45.793 30.0392 45.7779C29.8631 45.7625 29.7752 45.7547 29.7752 45.7547H29.4769H29.2244H22.6121C21.6019 45.7547 20.737 45.3954 20.0176 44.6755C19.2982 43.9561 18.9386 43.0915 18.9386 42.0814V25.918C18.9386 24.9079 19.2982 24.0433 20.0176 23.3239C20.737 22.6044 21.6019 22.2446 22.6121 22.2446H29.959C30.158 22.2446 30.3145 22.1952 30.4295 22.0955C30.5441 21.996 30.6205 21.8467 30.659 21.6477C30.6972 21.4488 30.7203 21.2691 30.728 21.1084C30.7356 20.9478 30.7319 20.7448 30.7165 20.5C30.7013 20.2552 30.6936 20.1021 30.6936 20.0406C30.6936 19.8417 30.6209 19.6698 30.4755 19.5241C30.3301 19.3791 30.158 19.3063 29.959 19.3063H22.6121C20.7908 19.3063 19.2334 19.953 17.9399 21.2463C16.6467 22.5396 16 24.0969 16 25.9183V42.0814C16 43.9026 16.6467 45.4603 17.9399 46.7531C19.2334 48.0471 20.7908 48.6938 22.6121 48.6938H29.9593C30.1583 48.6938 30.3149 48.6438 30.4299 48.5447C30.5445 48.445 30.6209 48.2959 30.6593 48.0967C30.6976 47.898 30.7206 47.7174 30.7284 47.5573C30.7359 47.3966 30.7322 47.194 30.7168 46.9492C30.7014 46.7041 30.694 46.5511 30.694 46.4897Z" fill="white"/>
<path d="M51.5637 32.9668L39.074 20.4767C38.7834 20.1862 38.4389 20.0405 38.0409 20.0405C37.6429 20.0405 37.2984 20.1862 37.0075 20.4767C36.7166 20.7676 36.5713 21.1123 36.5713 21.51V28.1223H26.2857C25.8875 28.1223 25.5432 28.268 25.2523 28.5585C24.9615 28.8493 24.8162 29.1938 24.8162 29.5918V38.4083C24.8162 38.8062 24.9615 39.1507 25.2523 39.4414C25.5435 39.7317 25.8877 39.8778 26.2857 39.8778H36.5714V46.49C36.5714 46.8876 36.7167 47.2324 37.0076 47.5231C37.2984 47.8139 37.6429 47.9596 38.041 47.9596C38.4389 47.9596 38.7834 47.8139 39.0741 47.5231L51.5637 35.0335C51.8546 34.7424 52 34.3984 52 34.0004C52 33.6025 51.8546 33.2576 51.5637 32.9668Z" fill="white"/>
</svg>
