<svg width="67" height="67" viewBox="0 0 67 67" fill="none" xmlns="http://www.w3.org/2000/svg">
<circle cx="33.5" cy="33.5" r="33.5" fill="#3DDABE"/>
<g clip-path="url(#clip0_26_5013)">
<path d="M37.9653 30.032C37.5389 29.603 37.0661 29.2228 36.5556 28.8982C35.2036 28.0324 33.6319 27.5724 32.0264 27.5724C29.7981 27.5683 27.6604 28.4536 26.0875 30.032L18.4569 37.6686C16.8866 39.2418 16.0041 41.3734 16.0027 43.5962C15.9997 48.2345 19.7574 51.9971 24.3958 52C26.6206 52.0078 28.7564 51.1266 30.3287 49.5525L36.6276 43.2536C36.7421 43.1401 36.806 42.9853 36.805 42.8242C36.8032 42.4929 36.533 42.2259 36.2017 42.2278H35.9617C34.6457 42.2324 33.3414 41.9797 32.1224 41.4839C31.8978 41.3915 31.6397 41.4436 31.4686 41.6159L26.9394 46.1511C25.533 47.5575 23.2527 47.5575 21.8463 46.1511C20.4399 44.7446 20.4399 42.4644 21.8463 41.058L29.5069 33.4034C30.9122 31.9998 33.1888 31.9998 34.594 33.4034C35.5411 34.2947 37.0184 34.2947 37.9654 33.4034C38.3729 32.9956 38.6199 32.4547 38.6613 31.8796C38.7051 31.1924 38.4517 30.5194 37.9653 30.032Z" fill="white"/>
<path d="M49.5373 18.46C46.2573 15.18 40.9394 15.18 37.6594 18.46L31.3665 24.7468C31.1937 24.9205 31.1439 25.1816 31.2406 25.4067C31.3361 25.6325 31.5594 25.7774 31.8044 25.7727H32.0264C33.3408 25.7703 34.643 26.025 35.8597 26.5225C36.0843 26.615 36.3424 26.5628 36.5135 26.3906L41.0307 21.8794C42.4371 20.473 44.7174 20.473 46.1238 21.8794C47.5302 23.2858 47.5302 25.566 46.1238 26.9725L40.4968 32.5934L40.4488 32.6474L38.4812 34.6031C37.0759 36.0066 34.7993 36.0066 33.394 34.6031C32.447 33.7118 30.9697 33.7118 30.0227 34.6031C29.6126 35.014 29.3654 35.5596 29.3268 36.1388C29.2829 36.826 29.5363 37.499 30.0227 37.9865C30.717 38.6838 31.5294 39.2524 32.4222 39.6662C32.5482 39.7261 32.6742 39.7741 32.8002 39.8281C32.9261 39.8821 33.0581 39.9241 33.1841 39.9721C33.31 40.0201 33.442 40.0621 33.568 40.0981L33.9219 40.194C34.1619 40.254 34.4019 40.302 34.6478 40.344C34.944 40.388 35.2424 40.416 35.5416 40.428H35.9615H35.9975L36.3575 40.386C36.4894 40.3801 36.6274 40.35 36.7834 40.35H36.9874L37.4013 40.2901L37.5933 40.2541L37.9412 40.1821H38.0072C39.4808 39.812 40.8263 39.049 41.9005 37.9745L49.5371 30.3379C52.8173 27.0579 52.8173 21.74 49.5373 18.46Z" fill="white"/>
</g>
<defs>
<clipPath id="clip0_26_5013">
<rect width="36" height="36" fill="white" transform="translate(16 16)"/>
</clipPath>
</defs>
</svg>
